<?xml version="1.0" encoding="UTF-8" standalone="no"?>
<!DOCTYPE svg PUBLIC "-//W3C//DTD SVG 1.1//EN"
 "http://www.w3.org/Graphics/SVG/1.1/DTD/svg11.dtd">
<!-- Generated by graphviz version 5.0.0 (20220707.1540)
 -->
<!-- Title: StorageDiagram Pages: 1 -->
<svg width="1986pt" height="535pt"
 viewBox="0.00 0.00 1985.88 534.80" xmlns="http://www.w3.org/2000/svg" xmlns:xlink="http://www.w3.org/1999/xlink">
<g id="graph0" class="graph" transform="scale(1 1) rotate(0) translate(4 530.8)">
<title>StorageDiagram</title>
<polygon fill="white" stroke="transparent" points="-4,4 -4,-530.8 1981.88,-530.8 1981.88,4 -4,4"/>
<!-- 5 -->
<g id="node1" class="node">
<title>5</title>
<polygon fill="#f2f2f2" stroke="black" points="0,-184.1 0,-456.9 635.29,-456.9 635.29,-184.1 0,-184.1"/>
<text text-anchor="middle" x="317.65" y="-440.3" font-family="Courier New" font-size="14.00">GasContract &lt;&lt;Contract&gt;&gt;</text>
<polyline fill="none" stroke="black" points="0,-432.1 635.29,-432.1 "/>
<text text-anchor="middle" x="24.8" y="-415.5" font-family="Courier New" font-size="14.00">slot</text>
<polyline fill="none" stroke="black" points="0,-407.3 49.61,-407.3 "/>
<text text-anchor="middle" x="24.8" y="-390.7" font-family="Courier New" font-size="14.00">0</text>
<polyline fill="none" stroke="black" points="0,-382.5 49.61,-382.5 "/>
<text text-anchor="middle" x="24.8" y="-365.9" font-family="Courier New" font-size="14.00">1</text>
<polyline fill="none" stroke="black" points="0,-357.7 49.61,-357.7 "/>
<text text-anchor="middle" x="24.8" y="-341.1" font-family="Courier New" font-size="14.00">2</text>
<polyline fill="none" stroke="black" points="0,-332.9 49.61,-332.9 "/>
<text text-anchor="middle" x="24.8" y="-316.3" font-family="Courier New" font-size="14.00">3</text>
<polyline fill="none" stroke="black" points="0,-308.1 49.61,-308.1 "/>
<text text-anchor="middle" x="24.8" y="-291.5" font-family="Courier New" font-size="14.00">4</text>
<polyline fill="none" stroke="black" points="0,-283.3 49.61,-283.3 "/>
<text text-anchor="middle" x="24.8" y="-266.7" font-family="Courier New" font-size="14.00">5</text>
<polyline fill="none" stroke="black" points="0,-258.5 49.61,-258.5 "/>
<text text-anchor="middle" x="24.8" y="-241.9" font-family="Courier New" font-size="14.00">6&#45;10</text>
<polyline fill="none" stroke="black" points="0,-233.7 49.61,-233.7 "/>
<text text-anchor="middle" x="24.8" y="-217.1" font-family="Courier New" font-size="14.00">11</text>
<polyline fill="none" stroke="black" points="0,-208.9 49.61,-208.9 "/>
<text text-anchor="middle" x="24.8" y="-192.3" font-family="Courier New" font-size="14.00">12</text>
<polyline fill="none" stroke="black" points="49.61,-184.1 49.61,-432.1 "/>
<text text-anchor="middle" x="342.45" y="-415.5" font-family="Courier New" font-size="14.00">type: &lt;inherited contract&gt;.variable (bytes)</text>
<polyline fill="none" stroke="black" points="49.61,-407.3 635.29,-407.3 "/>
<text text-anchor="middle" x="124.82" y="-390.7" font-family="Courier New" font-size="14.00">unallocated (11)</text>
<polyline fill="none" stroke="black" points="200.03,-382.5 200.03,-407.3 "/>
<text text-anchor="middle" x="292.04" y="-390.7" font-family="Courier New" font-size="14.00">bool: wasLastOdd (1)</text>
<polyline fill="none" stroke="black" points="384.05,-382.5 384.05,-407.3 "/>
<text text-anchor="middle" x="509.67" y="-390.7" font-family="Courier New" font-size="14.00">address: Ownable._owner (20)</text>
<polyline fill="none" stroke="black" points="49.61,-382.5 635.29,-382.5 "/>
<text text-anchor="middle" x="342.22" y="-365.9" font-family="Courier New" font-size="14.00">uint256: paymentCounter (32)</text>
<polyline fill="none" stroke="black" points="49.61,-357.7 635.29,-357.7 "/>
<text text-anchor="middle" x="342.33" y="-341.1" font-family="Courier New" font-size="14.00">mapping(address=&gt;uint256): balanceOf (32)</text>
<polyline fill="none" stroke="black" points="49.61,-332.9 635.29,-332.9 "/>
<text text-anchor="middle" x="342.03" y="-316.3" font-family="Courier New" font-size="14.00">mapping(address=&gt;Payment[]): payments (32)</text>
<polyline fill="none" stroke="black" points="49.61,-308.1 635.29,-308.1 "/>
<text text-anchor="middle" x="342.33" y="-291.5" font-family="Courier New" font-size="14.00">mapping(address=&gt;uint256): whitelist (32)</text>
<polyline fill="none" stroke="black" points="49.61,-283.3 635.29,-283.3 "/>
<text text-anchor="middle" x="342.33" y="-266.7" font-family="Courier New" font-size="14.00">mapping(address=&gt;bool): isAdmin (32)</text>
<polyline fill="none" stroke="black" points="49.61,-258.5 635.29,-258.5 "/>
<text text-anchor="middle" x="342.33" y="-241.9" font-family="Courier New" font-size="14.00">address[NUM_ADMINS]: administrators (160)</text>
<polyline fill="none" stroke="black" points="49.61,-233.7 635.29,-233.7 "/>
<text text-anchor="middle" x="342.13" y="-217.1" font-family="Courier New" font-size="14.00">History[]: paymentHistory (32)</text>
<polyline fill="none" stroke="black" points="49.61,-208.9 635.29,-208.9 "/>
<text text-anchor="middle" x="342.04" y="-192.3" font-family="Courier New" font-size="14.00">mapping(address=&gt;bool): isOddWhitelistUser (32)</text>
</g>
<!-- 1 -->
<g id="node2" class="node">
<title>1</title>
<polygon fill="#f2f2f2" stroke="black" points="671.29,-352.7 671.29,-526.3 1532.62,-526.3 1532.62,-352.7 671.29,-352.7"/>
<text text-anchor="middle" x="1101.96" y="-509.7" font-family="Courier New" font-size="14.00">Payment &lt;&lt;Struct&gt;&gt;</text>
<polyline fill="none" stroke="black" points="671.29,-501.5 1532.62,-501.5 "/>
<text text-anchor="middle" x="696.1" y="-484.9" font-family="Courier New" font-size="14.00">slot</text>
<polyline fill="none" stroke="black" points="671.29,-476.7 720.9,-476.7 "/>
<text text-anchor="middle" x="696.1" y="-460.1" font-family="Courier New" font-size="14.00">0</text>
<polyline fill="none" stroke="black" points="671.29,-451.9 720.9,-451.9 "/>
<text text-anchor="middle" x="696.1" y="-435.3" font-family="Courier New" font-size="14.00">1</text>
<polyline fill="none" stroke="black" points="671.29,-427.1 720.9,-427.1 "/>
<text text-anchor="middle" x="696.1" y="-410.5" font-family="Courier New" font-size="14.00">2</text>
<polyline fill="none" stroke="black" points="671.29,-402.3 720.9,-402.3 "/>
<text text-anchor="middle" x="696.1" y="-385.7" font-family="Courier New" font-size="14.00">3</text>
<polyline fill="none" stroke="black" points="671.29,-377.5 720.9,-377.5 "/>
<text text-anchor="middle" x="696.1" y="-360.9" font-family="Courier New" font-size="14.00">4</text>
<polyline fill="none" stroke="black" points="720.9,-352.7 720.9,-501.5 "/>
<text text-anchor="middle" x="1126.76" y="-484.9" font-family="Courier New" font-size="14.00">type: variable (bytes)</text>
<polyline fill="none" stroke="black" points="720.9,-476.7 1532.62,-476.7 "/>
<text text-anchor="middle" x="796.11" y="-460.1" font-family="Courier New" font-size="14.00">unallocated (10)</text>
<polyline fill="none" stroke="black" points="871.32,-451.9 871.32,-476.7 "/>
<text text-anchor="middle" x="975.94" y="-460.1" font-family="Courier New" font-size="14.00">address: recipient (20)</text>
<polyline fill="none" stroke="black" points="1080.55,-451.9 1080.55,-476.7 "/>
<text text-anchor="middle" x="1180.97" y="-460.1" font-family="Courier New" font-size="14.00">bool: adminUpdated (1)</text>
<polyline fill="none" stroke="black" points="1281.38,-451.9 1281.38,-476.7 "/>
<text text-anchor="middle" x="1407" y="-460.1" font-family="Courier New" font-size="14.00">PaymentType: paymentType (1)</text>
<polyline fill="none" stroke="black" points="720.9,-451.9 1532.62,-451.9 "/>
<text text-anchor="middle" x="917.11" y="-435.3" font-family="Courier New" font-size="14.00">unallocated (12)</text>
<polyline fill="none" stroke="black" points="1113.32,-427.1 1113.32,-451.9 "/>
<text text-anchor="middle" x="1322.63" y="-435.3" font-family="Courier New" font-size="14.00">address: admin (20)</text>
<polyline fill="none" stroke="black" points="720.9,-427.1 1532.62,-427.1 "/>
<text text-anchor="middle" x="1126.51" y="-410.5" font-family="Courier New" font-size="14.00">uint256: paymentID (32)</text>
<polyline fill="none" stroke="black" points="720.9,-402.3 1532.62,-402.3 "/>
<text text-anchor="middle" x="1126.32" y="-385.7" font-family="Courier New" font-size="14.00">bytes32: recipientName (32)</text>
<polyline fill="none" stroke="black" points="720.9,-377.5 1532.62,-377.5 "/>
<text text-anchor="middle" x="1126.41" y="-360.9" font-family="Courier New" font-size="14.00">uint256: amount (32)</text>
</g>
<!-- 5&#45;&gt;1 -->
<g id="edge1" class="edge">
<title>5:12&#45;&gt;1</title>
<path fill="none" stroke="black" d="M635.29,-320.5C654.04,-320.5 653.92,-335.45 671.29,-342.5 676.8,-344.73 682.36,-346.92 687.98,-349.06"/>
<polygon fill="black" stroke="black" points="686.89,-352.39 697.49,-352.62 689.35,-345.83 686.89,-352.39"/>
</g>
<!-- 2 -->
<g id="node3" class="node">
<title>2</title>
<polygon fill="#f2f2f2" stroke="black" points="904.93,-159.7 904.93,-333.3 1298.99,-333.3 1298.99,-159.7 904.93,-159.7"/>
<text text-anchor="middle" x="1101.96" y="-316.7" font-family="Courier New" font-size="14.00">address[NUM_ADMINS]: administrators &lt;&lt;Array&gt;&gt;</text>
<polyline fill="none" stroke="black" points="904.93,-308.5 1298.99,-308.5 "/>
<text text-anchor="middle" x="948.73" y="-291.9" font-family="Courier New" font-size="14.00">slot</text>
<polyline fill="none" stroke="black" points="904.93,-283.7 992.53,-283.7 "/>
<text text-anchor="middle" x="948.73" y="-267.1" font-family="Courier New" font-size="14.00">6</text>
<polyline fill="none" stroke="black" points="904.93,-258.9 992.53,-258.9 "/>
<text text-anchor="middle" x="948.73" y="-242.3" font-family="Courier New" font-size="14.00">7</text>
<polyline fill="none" stroke="black" points="904.93,-234.1 992.53,-234.1 "/>
<text text-anchor="middle" x="948.73" y="-217.5" font-family="Courier New" font-size="14.00">8</text>
<polyline fill="none" stroke="black" points="904.93,-209.3 992.53,-209.3 "/>
<text text-anchor="middle" x="948.73" y="-192.7" font-family="Courier New" font-size="14.00">9</text>
<polyline fill="none" stroke="black" points="904.93,-184.5 992.53,-184.5 "/>
<text text-anchor="middle" x="948.73" y="-167.9" font-family="Courier New" font-size="14.00">10</text>
<polyline fill="none" stroke="black" points="992.53,-159.7 992.53,-308.5 "/>
<text text-anchor="middle" x="1145.65" y="-291.9" font-family="Courier New" font-size="14.00">type: variable (bytes)</text>
<polyline fill="none" stroke="black" points="992.53,-283.7 1298.77,-283.7 "/>
<text text-anchor="middle" x="1077.24" y="-267.1" font-family="Courier New" font-size="14.00">unallocated (12)</text>
<polyline fill="none" stroke="black" points="1161.95,-258.9 1161.95,-283.7 "/>
<text text-anchor="middle" x="1230.36" y="-267.1" font-family="Courier New" font-size="14.00">address (20)</text>
<polyline fill="none" stroke="black" points="992.53,-258.9 1298.77,-258.9 "/>
<text text-anchor="middle" x="1077.24" y="-242.3" font-family="Courier New" font-size="14.00">unallocated (12)</text>
<polyline fill="none" stroke="black" points="1161.95,-234.1 1161.95,-258.9 "/>
<text text-anchor="middle" x="1230.36" y="-242.3" font-family="Courier New" font-size="14.00">address (20)</text>
<polyline fill="none" stroke="black" points="992.53,-234.1 1298.77,-234.1 "/>
<text text-anchor="middle" x="1077.24" y="-217.5" font-family="Courier New" font-size="14.00">unallocated (12)</text>
<polyline fill="none" stroke="black" points="1161.95,-209.3 1161.95,-234.1 "/>
<text text-anchor="middle" x="1230.36" y="-217.5" font-family="Courier New" font-size="14.00">address (20)</text>
<polyline fill="none" stroke="black" points="992.53,-209.3 1298.77,-209.3 "/>
<text text-anchor="middle" x="1077.24" y="-192.7" font-family="Courier New" font-size="14.00">unallocated (12)</text>
<polyline fill="none" stroke="black" points="1161.95,-184.5 1161.95,-209.3 "/>
<text text-anchor="middle" x="1230.36" y="-192.7" font-family="Courier New" font-size="14.00">address (20)</text>
<polyline fill="none" stroke="black" points="992.53,-184.5 1298.77,-184.5 "/>
<text text-anchor="middle" x="1077.24" y="-167.9" font-family="Courier New" font-size="14.00">unallocated (12)</text>
<polyline fill="none" stroke="black" points="1161.95,-159.7 1161.95,-184.5 "/>
<text text-anchor="middle" x="1230.36" y="-167.9" font-family="Courier New" font-size="14.00">address (20)</text>
</g>
<!-- 5&#45;&gt;2 -->
<g id="edge2" class="edge">
<title>5:20&#45;&gt;2</title>
<path fill="none" stroke="black" d="M635.29,-246.5C720.09,-246.5 813.57,-246.5 894.39,-246.5"/>
<polygon fill="black" stroke="black" points="894.69,-250 904.69,-246.5 894.69,-243 894.69,-250"/>
</g>
<!-- 4 -->
<g id="node5" class="node">
<title>4</title>
<polygon fill="#f2f2f2" stroke="black" points="816.71,-49.9 816.71,-141.1 1387.2,-141.1 1387.2,-49.9 816.71,-49.9"/>
<text text-anchor="middle" x="1101.96" y="-124.5" font-family="Courier New" font-size="14.00">History[]: paymentHistory &lt;&lt;Array&gt;&gt;</text>
<text text-anchor="middle" x="1101.96" y="-107.7" font-family="Courier New" font-size="14.00">0x4ef2c2465cce88e0e214058215bb7a096d990185a88b386df8e8a1ecb9503fe7</text>
<polyline fill="none" stroke="black" points="816.71,-99.5 1387.2,-99.5 "/>
<text text-anchor="middle" x="921.51" y="-82.9" font-family="Courier New" font-size="14.00">slot</text>
<polyline fill="none" stroke="black" points="816.71,-74.7 1026.32,-74.7 "/>
<text text-anchor="middle" x="921.51" y="-58.1" font-family="Courier New" font-size="14.00">0&#45;2</text>
<polyline fill="none" stroke="black" points="1026.32,-49.9 1026.32,-99.5 "/>
<text text-anchor="middle" x="1206.73" y="-82.9" font-family="Courier New" font-size="14.00">type: variable (bytes)</text>
<polyline fill="none" stroke="black" points="1026.32,-74.7 1387.15,-74.7 "/>
<text text-anchor="middle" x="1206.73" y="-58.1" font-family="Courier New" font-size="14.00">History (96)</text>
</g>
<!-- 5&#45;&gt;4 -->
<g id="edge3" class="edge">
<title>5:25&#45;&gt;4</title>
<path fill="none" stroke="black" d="M635.29,-221.5C670.67,-221.5 642.38,-170.9 671.29,-150.5 711.1,-122.41 758.28,-105.02 806.55,-94.71"/>
<polygon fill="black" stroke="black" points="807.44,-98.1 816.54,-92.67 806.04,-91.24 807.44,-98.1"/>
</g>
<!-- 3 -->
<g id="node4" class="node">
<title>3</title>
<polygon fill="#f2f2f2" stroke="black" points="1568.62,-0.5 1568.62,-124.5 1977.88,-124.5 1977.88,-0.5 1568.62,-0.5"/>
<text text-anchor="middle" x="1773.25" y="-107.9" font-family="Courier New" font-size="14.00">History &lt;&lt;Struct&gt;&gt;</text>
<polyline fill="none" stroke="black" points="1568.62,-99.7 1977.88,-99.7 "/>
<text text-anchor="middle" x="1593.42" y="-83.1" font-family="Courier New" font-size="14.00">slot</text>
<polyline fill="none" stroke="black" points="1568.62,-74.9 1618.23,-74.9 "/>
<text text-anchor="middle" x="1593.42" y="-58.3" font-family="Courier New" font-size="14.00">0</text>
<polyline fill="none" stroke="black" points="1568.62,-50.1 1618.23,-50.1 "/>
<text text-anchor="middle" x="1593.42" y="-33.5" font-family="Courier New" font-size="14.00">1</text>
<polyline fill="none" stroke="black" points="1568.62,-25.3 1618.23,-25.3 "/>
<text text-anchor="middle" x="1593.42" y="-8.7" font-family="Courier New" font-size="14.00">2</text>
<polyline fill="none" stroke="black" points="1618.23,-0.5 1618.23,-99.7 "/>
<text text-anchor="middle" x="1798.05" y="-83.1" font-family="Courier New" font-size="14.00">type: variable (bytes)</text>
<polyline fill="none" stroke="black" points="1618.23,-74.9 1977.88,-74.9 "/>
<text text-anchor="middle" x="1798.04" y="-58.3" font-family="Courier New" font-size="14.00">uint256: lastUpdate (32)</text>
<polyline fill="none" stroke="black" points="1618.23,-50.1 1977.88,-50.1 "/>
<text text-anchor="middle" x="1693.44" y="-33.5" font-family="Courier New" font-size="14.00">unallocated (12)</text>
<polyline fill="none" stroke="black" points="1768.65,-25.3 1768.65,-50.1 "/>
<text text-anchor="middle" x="1873.26" y="-33.5" font-family="Courier New" font-size="14.00">address: updatedBy (20)</text>
<polyline fill="none" stroke="black" points="1618.23,-25.3 1977.88,-25.3 "/>
<text text-anchor="middle" x="1797.74" y="-8.7" font-family="Courier New" font-size="14.00">uint256: blockNumber (32)</text>
</g>
<!-- 4&#45;&gt;3 -->
<g id="edge4" class="edge">
<title>4:21&#45;&gt;3</title>
<path fill="none" stroke="black" d="M1387.96,-62.5C1443.07,-62.5 1502.63,-62.5 1558.03,-62.5"/>
<polygon fill="black" stroke="black" points="1558.32,-66 1568.32,-62.5 1558.32,-59 1558.32,-66"/>
</g>
</g>
</svg>
